<svg width="699" height="443" viewBox="0 0 699 443" fill="none" xmlns="http://www.w3.org/2000/svg">
<g id="Group 32">
<g id="Group 123">
<rect id="Rectangle Copy 14" x="-360" y="91" width="1000" height="352" rx="176" fill="#5267DF"/>
<g id="GoViral - Wordpress Theme">
<rect id="Mask" x="155" width="536" height="346" rx="8" fill="#E8EAF6"/>
<g id="Group 28">
<rect id="Rectangle" x="151.47" y="0.197021" width="547" height="59" fill="#242A45"/>
<g id="Group 7">
<circle id="Oval" opacity="0.244768" cx="193.47" cy="30.197" r="16" fill="white"/>
<circle id="Oval Copy" opacity="0.104399" cx="654.47" cy="30.197" r="16" fill="white"/>
<g id="Group 6">
<rect id="Rectangle_2" opacity="0.75" x="224.47" y="20.197" width="120" height="6" rx="3" fill="white"/>
<rect id="Rectangle Copy 6" opacity="0.25" x="224.47" y="34.197" width="64" height="6" rx="3" fill="white"/>
</g>
</g>
</g>
<g id="Group 26">
<rect id="Rectangle_3" x="212" y="93" width="261" height="316" rx="8" fill="white"/>
<rect id="Rectangle Copy 7" x="507" y="93" width="128" height="316" rx="8" fill="white"/>
<rect id="Rectangle_4" opacity="0.5" x="290.47" y="131.197" width="120" height="6" rx="3" fill="#242A45"/>
</g>
</g>
</g>
<g id="Group 29">
<circle id="Oval_2" cx="259.47" cy="141.197" r="16" fill="#F98E5D"/>
<rect id="Rectangle_5" opacity="0.25" x="527.47" y="115.197" width="88" height="6" rx="3" fill="#242A45"/>
<rect id="Rectangle Copy 8" opacity="0.25" x="527.47" y="135.197" width="88" height="6" rx="3" fill="#242A45"/>
<rect id="Rectangle Copy 9" opacity="0.25" x="527.47" y="155.197" width="88" height="6" rx="3" fill="#242A45"/>
<rect id="Rectangle Copy 10" opacity="0.25" x="527.47" y="175.197" width="88" height="6" rx="3" fill="#242A45"/>
<rect id="Rectangle Copy 11" opacity="0.25" x="527.47" y="209.197" width="88" height="6" rx="3" fill="#242A45"/>
<rect id="Rectangle Copy 12" opacity="0.25" x="527.47" y="229.197" width="88" height="6" rx="3" fill="#242A45"/>
<rect id="Rectangle Copy 13" opacity="0.25" x="527.47" y="249.197" width="88" height="6" rx="3" fill="#242A45"/>
<rect id="Rectangle Copy 6_2" opacity="0.25" x="290.47" y="145.197" width="64" height="6" rx="3" fill="#242A45"/>
</g>
<g id="Group 29 Copy">
<circle id="Oval_3" cx="259.47" cy="197.197" r="16" fill="#6AC6D6"/>
<rect id="Rectangle_6" opacity="0.5" x="290.47" y="187.197" width="120" height="6" rx="3" fill="#242A45"/>
<rect id="Rectangle Copy 6_3" opacity="0.25" x="290.47" y="201.197" width="64" height="6" rx="3" fill="#242A45"/>
</g>
<g id="Group 29 Copy 2">
<circle id="Oval_4" cx="259.47" cy="253.197" r="16" fill="#A47ED4"/>
<rect id="Rectangle_7" opacity="0.5" x="290.47" y="243.197" width="120" height="6" rx="3" fill="#242A45"/>
<rect id="Rectangle Copy 6_4" opacity="0.25" x="290.47" y="257.197" width="64" height="6" rx="3" fill="#242A45"/>
</g>
<g id="Group 29 Copy 3">
<circle id="Oval_5" cx="259.47" cy="309.197" r="16" fill="#EC7878"/>
<rect id="Rectangle_8" opacity="0.5" x="290.47" y="299.197" width="120" height="6" rx="3" fill="#242A45"/>
<rect id="Rectangle Copy 6_5" opacity="0.25" x="290.47" y="313.197" width="64" height="6" rx="3" fill="#242A45"/>
</g>
</g>
</svg>
